<?xml version="1.0" encoding="utf-8"?>
<svg viewBox="125.985 0 61.818 350" width="61.818" height="166.094" xmlns="http://www.w3.org/2000/svg">
  <path style="fill: rgb(255, 162, 0); stroke: rgb(0, 0, 0);" d="M 73.915 70.854 C 109.94 70.927 240.17 82.528 222.082 108.942 C 213.801 121.036 90.34 132.517 73.847 132.672" transform="matrix(0, -1, 1, 0, 55.131252, 258.657246)"/>
  <path style="fill: rgb(255, 162, 0); stroke: rgb(0, 0, 0);" d="M 73.915 297.862 C 109.94 297.789 256.49 286.185 238.402 259.771 C 230.121 247.677 90.34 236.199 73.847 236.044" transform="matrix(0, 1, -1, 0, 423.847252, 110.058754)"/>
  <g transform="matrix(0.516218, 0, 0, 0.516218, 125.993195, 0)">
    <path class="st0" d="M 40.06 0.37 C 49.46 0.37 57.09 12.06 57.09 26.47 C 57.09 40.88 49.46 52.57 40.06 52.57 C 30.66 52.57 23.03 40.89 23.03 26.47 C 23.04 12.06 30.66 0.37 40.06 0.37 Z M 7.17 39.08 C 0.14 41.86 -2.1 52.85 2.16 63.62 C 6.42 74.39 15.57 80.87 22.6 78.09 C 29.63 75.31 31.87 64.32 27.61 53.55 C 23.35 42.78 14.2 36.3 7.17 39.08 Z M 112.55 39.08 C 119.58 41.86 121.82 52.85 117.56 63.62 C 113.3 74.39 104.14 80.87 97.12 78.09 C 90.09 75.31 87.85 64.32 92.11 53.55 C 96.37 42.78 105.52 36.3 112.55 39.08 Z M 79.35 0 C 88.75 0 96.38 11.69 96.38 26.1 C 96.38 40.51 88.75 52.2 79.35 52.2 C 69.95 52.2 62.32 40.52 62.32 26.1 C 62.33 11.69 69.95 0 79.35 0 Z" style="clip-rule: evenodd; fill-rule: evenodd; fill: rgb(255, 162, 0); stroke-width: 2px; stroke: rgb(0, 0, 0);"/>
    <circle style="fill: rgb(255, 162, 0); stroke: rgb(0, 0, 0); stroke-width: 1.93717px;" cx="58.99" cy="70.067" r="32.932"/>
  </g>
</svg>