<?xml version="1.0" encoding="UTF-8"?>
<svg version="1.1" viewBox="0 0 190.97 443.37" xmlns="http://www.w3.org/2000/svg" xmlns:xlink="http://www.w3.org/1999/xlink">
 <defs>
  <linearGradient id="ag">
   <stop stop-color="#5bd108" offset="0"/>
   <stop stop-color="#548c00" offset="1"/>
  </linearGradient>
  <linearGradient id="af">
   <stop stop-color="#8f8383" offset="0"/>
   <stop stop-color="#a28f8f" offset=".5"/>
   <stop stop-color="#9f9b9b" offset="1"/>
  </linearGradient>
  <radialGradient id="au" cx="360.4" cy="792.39" r="27.212" gradientTransform="matrix(1.6004 .096822 -.061683 1.0196 -167.43 -55.55)" gradientUnits="userSpaceOnUse">
   <stop stop-color="#e3e3e3" offset="0"/>
   <stop stop-color="#e1e1e1" offset=".51042"/>
   <stop stop-color="#999898" offset=".56943"/>
   <stop stop-color="#858585" offset="1"/>
  </radialGradient>
  <linearGradient id="bh" x1="360.39" x2="341.93" y1="736.5" y2="736.14" gradientTransform="translate(0,1.25)" gradientUnits="userSpaceOnUse" spreadMethod="reflect">
   <stop stop-color="#363636" offset="0"/>
   <stop stop-color="#726262" offset=".5"/>
   <stop stop-color="#9c9999" offset="1"/>
  </linearGradient>
  <radialGradient id="av" cx="326.37" cy="711.87" r="18.419" gradientTransform="matrix(-1.497 1.7696 -4.0837 -3.4547 3723.8 2588.4)" gradientUnits="userSpaceOnUse">
   <stop stop-color="#b5b5b5" offset="0"/>
   <stop stop-color="#787878" offset=".31632"/>
   <stop stop-color="#696969" offset=".38133"/>
   <stop stop-color="#936c6c" offset="1"/>
  </radialGradient>
  <radialGradient id="aw" cx="386.63" cy="712.97" r="15.488" gradientTransform="matrix(1.2593 .13331 -.31397 2.9657 122.33 -1454.1)" gradientUnits="userSpaceOnUse">
   <stop stop-color="#b5b5b5" offset="0"/>
   <stop stop-color="#787878" offset=".50787"/>
   <stop stop-color="#696969" offset=".77595"/>
   <stop stop-color="#936c6c" offset="1"/>
  </radialGradient>
  <radialGradient id="ax" cx="381.79" cy="771.11" r="15.073" gradientTransform="matrix(1 0 0 .82098 0 138.04)" gradientUnits="userSpaceOnUse" xlink:href="#af"/>
  <radialGradient id="ay" cx="337.93" cy="773.17" r="15.073" gradientTransform="matrix(1 0 0 .82098 0 138.41)" gradientUnits="userSpaceOnUse" xlink:href="#af"/>
  <radialGradient id="az" cx="379.62" cy="755.91" r="6.6806" gradientTransform="matrix(1 0 0 .76021 0 181.26)" gradientUnits="userSpaceOnUse" xlink:href="#ag"/>
  <radialGradient id="ba" cx="339.05" cy="757.81" r="7.0571" gradientTransform="matrix(1 0 0 .6665 0 252.73)" gradientUnits="userSpaceOnUse" xlink:href="#ag"/>
  <linearGradient id="bi" x1="327.21" x2="313.14" y1="754.04" y2="767.67" gradientUnits="userSpaceOnUse">
   <stop stop-color="#353535" offset="0"/>
   <stop stop-color="#b1b1b1" offset="1"/>
  </linearGradient>
  <linearGradient id="bj" x1="327.21" x2="309.1" y1="754.04" y2="763.89" gradientTransform="matrix(-1 0 0 1 723.1 -3.7101)" gradientUnits="userSpaceOnUse">
   <stop stop-color="#353535" offset="0"/>
   <stop stop-color="#b1b1b1" offset="1"/>
  </linearGradient>
  <linearGradient id="ah" x1="334.5" x2="305.5" y1="785.93" y2="802.01" gradientUnits="userSpaceOnUse">
   <stop stop-color="#d0d0d0" offset="0"/>
   <stop stop-color="#dbdbdb" stop-opacity=".78431" offset=".5"/>
   <stop stop-color="#e6e6e6" stop-opacity=".57075" offset="1"/>
  </linearGradient>
  <linearGradient id="ai" x1="334.5" x2="305.5" y1="785.93" y2="802.01" gradientTransform="matrix(.99586 -.090856 .090856 .99586 -64.786 34.624)" gradientUnits="userSpaceOnUse">
   <stop stop-color="#d0d0d0" offset="0"/>
   <stop stop-color="#dbdbdb" stop-opacity=".78431" offset=".5"/>
   <stop stop-color="#e6e6e6" stop-opacity=".57075" offset="1"/>
  </linearGradient>
  <linearGradient id="aj" x1="334.5" x2="305.5" y1="785.93" y2="802.01" gradientTransform="matrix(.98094 -.1943 .1943 .98094 -138.85 85.402)" gradientUnits="userSpaceOnUse">
   <stop stop-color="#d0d0d0" offset="0"/>
   <stop stop-color="#dbdbdb" stop-opacity=".78431" offset=".5"/>
   <stop stop-color="#e6e6e6" stop-opacity=".57075" offset="1"/>
  </linearGradient>
  <linearGradient id="am" x1="334.5" x2="313.42" y1="785.93" y2="796.23" gradientTransform="matrix(.72661 -.68705 .68705 .72661 -444.09 456.42)" gradientUnits="userSpaceOnUse">
   <stop stop-color="#d0d0d0" offset="0"/>
   <stop stop-color="#dbdbdb" stop-opacity=".78431" offset=".5"/>
   <stop stop-color="#e6e6e6" stop-opacity=".57075" offset="1"/>
  </linearGradient>
  <linearGradient id="an" x1="334.5" x2="313.42" y1="785.93" y2="796.23" gradientTransform="matrix(-.61599 -.55856 -.58245 .59072 1045.9 520.79)" gradientUnits="userSpaceOnUse">
   <stop stop-color="#d0d0d0" offset="0"/>
   <stop stop-color="#dbdbdb" stop-opacity=".78431" offset=".5"/>
   <stop stop-color="#e6e6e6" stop-opacity=".57075" offset="1"/>
  </linearGradient>
  <linearGradient id="ak" x1="334.5" x2="305.5" y1="785.93" y2="802.01" gradientTransform="matrix(-.8316 -.15796 -.16472 .79749 787.18 219.16)" gradientUnits="userSpaceOnUse">
   <stop stop-color="#d0d0d0" offset="0"/>
   <stop stop-color="#dbdbdb" stop-opacity=".78431" offset=".5"/>
   <stop stop-color="#e6e6e6" stop-opacity=".57075" offset="1"/>
  </linearGradient>
  <linearGradient id="al" x1="334.5" x2="305.5" y1="785.93" y2="802.01" gradientTransform="matrix(-.84425 -.073865 -.077024 .80962 724.39 177.88)" gradientUnits="userSpaceOnUse">
   <stop stop-color="#d0d0d0" offset="0"/>
   <stop stop-color="#dbdbdb" stop-opacity=".78431" offset=".5"/>
   <stop stop-color="#e6e6e6" stop-opacity=".57075" offset="1"/>
  </linearGradient>
  <linearGradient id="ao" x1="334.5" x2="305.5" y1="785.93" y2="802.01" gradientTransform="matrix(-.84776 0 0 .81298 669.47 149.73)" gradientUnits="userSpaceOnUse">
   <stop stop-color="#d0d0d0" offset="0"/>
   <stop stop-color="#dbdbdb" stop-opacity=".78431" offset=".5"/>
   <stop stop-color="#e6e6e6" stop-opacity=".57075" offset="1"/>
  </linearGradient>
  <linearGradient id="ap" x1="359.83" x2="419.07" y1="677.27" y2="677.27" gradientUnits="userSpaceOnUse" spreadMethod="reflect">
   <stop offset="0"/>
   <stop stop-color="#3e3e3e" offset=".052655"/>
   <stop stop-color="#6b6b6b" offset=".39469"/>
   <stop stop-color="#515151" offset=".65675"/>
   <stop stop-color="#6d6d6d" offset="1"/>
  </linearGradient>
  <radialGradient id="bb" cx="403.08" cy="617.38" r="15.139" gradientTransform="matrix(2.3683 .093652 -.1992 5.0375 -430.21 -2530.4)" gradientUnits="userSpaceOnUse">
   <stop offset="0"/>
   <stop stop-color="#3e3e3e" offset=".052655"/>
   <stop stop-color="#6b6b6b" offset=".39627"/>
   <stop stop-color="#515151" offset=".65675"/>
   <stop stop-color="#6d6d6d" offset="1"/>
  </radialGradient>
  <radialGradient id="bc" cx="329.01" cy="624.2" r="15.139" gradientTransform="matrix(-3.6105 -.38513 .81362 -7.6276 1009 5489.6)" gradientUnits="userSpaceOnUse">
   <stop offset="0"/>
   <stop stop-color="#3e3e3e" offset=".2885"/>
   <stop stop-color="#6b6b6b" offset=".45949"/>
   <stop stop-color="#515151" offset=".65675"/>
   <stop stop-color="#6d6d6d" offset="1"/>
  </radialGradient>
  <radialGradient id="bd" cx="329.34" cy="851.16" r="22.074" gradientTransform="matrix(-1.3952 -.033563 .011883 -.49395 779.73 1273.2)" gradientUnits="userSpaceOnUse">
   <stop stop-color="#fff" offset="0"/>
   <stop stop-color="#d4d4d4" offset=".69583"/>
   <stop stop-color="#aaa" offset="1"/>
  </radialGradient>
  <radialGradient id="be" cx="329.34" cy="851.16" r="22.074" gradientTransform="matrix(1.2168 -.033563 -.010363 -.49395 -.75198 1274.2)" gradientUnits="userSpaceOnUse">
   <stop stop-color="#fff" offset="0"/>
   <stop stop-color="#d4d4d4" offset=".69583"/>
   <stop stop-color="#aaa" offset="1"/>
  </radialGradient>
  <linearGradient id="aq" x1="282.1" x2="281.6" y1="478.97" y2="532" gradientTransform="matrix(1 0 0 1.0548 78.287 -21.655)" gradientUnits="userSpaceOnUse">
   <stop stop-color="#cfcfcf" offset="0"/>
   <stop stop-color="#d3d3d3" offset=".25297"/>
   <stop stop-color="#5e5e5e" offset=".50336"/>
   <stop stop-color="#343434" offset="1"/>
  </linearGradient>
  <filter id="bf" color-interpolation-filters="sRGB">
   <feGaussianBlur stdDeviation="0.060128135"/>
  </filter>
  <linearGradient id="ar" x1="65.665" x2="65.907" y1="1.7036" y2="48.423" gradientUnits="userSpaceOnUse">
   <stop stop-color="#cfcfcf" offset="0"/>
   <stop stop-color="#d3d3d3" offset=".15021"/>
   <stop stop-color="#5e5e5e" offset=".66555"/>
   <stop stop-color="#343434" offset="1"/>
  </linearGradient>
  <linearGradient id="as" x1="65.16" x2="65.15" y1="28.22" y2="43.372" gradientUnits="userSpaceOnUse">
   <stop offset="0"/>
   <stop stop-opacity="0" offset="1"/>
  </linearGradient>
  <linearGradient id="at" x1="359.98" x2="359.76" y1="536.07" y2="504" gradientUnits="userSpaceOnUse">
   <stop offset="0"/>
   <stop stop-color="#202020" stop-opacity="0" offset="1"/>
  </linearGradient>
  <filter id="bg" x="-.25641" y="-.06865" width="1.5128" height="1.1373" color-interpolation-filters="sRGB">
   <feGaussianBlur stdDeviation="12.706439"/>
  </filter>
 </defs>
 <g transform="translate(-285.77 -439.11)">
  <path transform="matrix(1 .59719 0 1 -7.5761 -226.65)" d="m388.66 466.06c-0.41011 0.0197-10.16-0.91635-11.281 18.031-0.86309 14.581-0.57745 31.494-1.0312 39.188-14.937 4.3705-38.229 15.299-38.062 33.5 4e-3 0.43061 0.0184 0.87782 0.0312 1.3125-1.9998 4.8567-9.3026 23.304-8.9375 34.156 0.42852 12.736 12.438 36.188 12.438 36.188 1.501 1.5197-2.4377 8.3422-1.3125 9.375 3.0554 2.8045 5.4958 4.1414 7.5 4.5-0.60786 5.4024-1.7675 11.593-3.7812 20.25-5.2455 22.549-10.219 55.656-10.219 55.656 1.1706 33.819 7.6233 33.364 11.438 50l-0.28125 19.062 1.25 24.062c-10.299 8.2498-11.979 32.086-11.348 34.513 11.645 10.271 14.116 19.919 25.046 8.0577 1.2012-1.7359 16.887-35.99 10.121-37.31-0.19161-6.856 4.8013-17.495 5.2746-25.042 0.85077-5.3859 1.6536-0.80177 1.875-6.5625l13.781 0.65625 13.781 0.34375c-0.0935 5.4366 1.4654-0.21788 2.7188 5.2188l-0.625 22.062c-6.229 2.6029-8.299 10.062-6.5312 13 12.753 11.234 13.945 3.5804 17.953-1.6547 2.3853-3.2293 11.364-21.048 5.3195-22.306 0.66232-8.056-3.0407-7.5854-1.473-17.15-1.6155-10.296 8.8686-6.3409 8.5128-16.951 3.8573-16.165 10.025-8.1698 11.438-50 0 0-1.2908-32.206-4.8125-54.375-1.4642-9.2173-2.6227-15.964-3.5312-22.062 0.96298-0.54406 1.9709-1.3306 3.0312-2.4375 3.3607-3.5084-1.8206-8.0762-1.0625-8.8438 0 0 11.978-23.451 12.406-36.188 0.41985-12.479-9.75-36.188-9.75-36.188l-0.5625 0.53125c0.022-0.68227 0.0315-1.3334 0-1.875-0.817-14.03-16.935-27.964-32.938-33.375-0.0936-4.0861-2.7698-29.835-4.1875-40.562-2.2873-17.309-11.777-16.801-12.188-16.781z" filter="url(#bg)" opacity=".58842" stroke="#000" stroke-width="1px"/>
  <g stroke="#000" stroke-width="1px">
   <path d="m309.76 575.93s-10.175 23.7-9.7551 36.179c0.42852 12.736 12.416 36.179 12.416 36.179 1.501 1.5197-2.4307 8.3426-1.3055 9.3754 14.546 13.351 15.607-5.9136 18.155-11.14l-4.4341-56.474z" fill="url(#bc)"/>
   <path d="m409.16 578s10.175 23.7 9.7551 36.179c-0.42852 12.736-12.416 36.179-12.416 36.179-0.7581 0.76756 4.4185 5.3455 1.0578 8.8539-9.6339 10.057-15.179-5.0235-17.908-10.619l4.4341-56.474z" fill="url(#bb)"/>
   <path d="m375.56 805.87c-0.0935 5.4366 1.4717-0.23843 2.7251 5.1982l-0.62555 22.066c-6.229 2.6029-8.3189 10.07-6.5511 13.008 12.753 11.234 34.162 7.1687 38.17 1.9336 2.3853-3.2293-1.762-13.723-7.8064-14.981 0.66232-8.056 0.50063-14.739 2.0683-24.304-1.6155-10.296-1.7521-10.102-2.1079-20.712 3.8573-16.165 10.016-8.1698 11.429-50 0 0-1.2857-32.222-4.8074-54.391s-5.2387-30.245-6.1012-48.625c-0.81918-17.455 7.1696-49.026 6.6229-58.413-0.817-14.03-16.916-27.978-32.919-33.389-0.0936-4.0861-2.7812-29.838-4.1989-40.566-2.2873-17.309-11.758-16.78-12.168-16.76-0.41011 0.0197-10.178-0.91954-11.3 18.028-0.86309 14.581-0.57975 31.484-1.0336 39.177-14.937 4.3705-38.216 15.308-38.049 33.509 0.16848 18.38 8.6722 40.563 9.6534 58.918 0.98215 18.373 1.538 24.303-3.7076 46.853-5.2455 22.549-10.232 55.658-10.232 55.658 1.1706 33.819 7.6144 33.364 11.429 50l-0.27753 19.071 1.2481 24.051c-10.299 8.2498-8.4377 11.797-7.8064 14.224 11.645 10.271 31.281 10.685 42.211-1.176 1.2012-1.7359 1.7302-10.299-5.0359-11.619-0.19161-6.856-0.74122-13.67-0.26794-21.217 0.85077-5.3859 1.641-0.79143 1.8624-6.5522l13.788 0.67096z" fill="url(#ap)"/>
  </g>
  <path d="m314.03 840.36s3.0185 0.33966 4.7982 1.2627c1.666 0.86402 4.7982 5.177 4.7982 5.177s3.2624-2.6634 5.6821-2.6516c2.8584 0.0139 7.3236 2.6517 7.3236 2.6517s2.584-3.5729 5.177-5.0508c1.5428-0.87927 6.3134-1.0102 6.3134-1.0102 0.41435-3.0436 1.747-4.2505 2.7779-6.0609 1.5691 3.0225 1.1041 5.8554 1.0102 8.2075-5.5609 4.8497-11.854 8.8339-21.087 9.3439-9.5289 0.52632-17.993-4.2103-22.223-8.46 0.16693-5.8545 1.7281-5.3303 2.5254-7.3236 2.7995 0.39376 2.1938 3.2221 2.9042 3.9143z" fill="url(#bd)"/>
  <path d="m405.93 842.67s-4.4821 0.36475-5.4796 1.2627c-1.6272 1.4648-4.0878 3.6618-4.0878 3.6618s-3.6029-2.2846-5.7131-2.2728c-2.4928 0.0139-5.6295 2.2728-5.6295 2.2728s-2.5649-4.7094-4.6061-5.4296c-1.4802-0.52226-5.0656-0.12627-5.0656-0.12627-0.76953-1.6282-2.0193-3.9397-2.4902-4.672-2.6311 2.77-2.0993 5.4766-2.0174 7.8287 4.8498 4.8497 11.853 7.1924 19.906 7.7024 8.3104 0.52632 15.187-1.4324 18.876-5.6821-0.14558-5.8545-1.6334-5.8354-2.3287-7.8287-2.4415 0.39376-0.74451 2.5908-1.3641 3.283z" fill="url(#be)"/>
  <path d="m351.03 486.9c-5.3059 19.271-5.4201 33.065-4.0406 45.284 9.508 12.891 18.099 10.301 26.264 0.53276 0.56782-14.263 0.6898-28.76-4.0406-45.817-5.3875-5.6827-11.448-5.6827-18.183 0z" fill="url(#aq)" stroke="#000" stroke-width="1px"/>
  <path transform="translate(294.4 482.14)" d="m62.629-8.9026c2.7639-9.7662 4.9735-6.2263 7.0711 0 7.0085 19.232 4.4745 36.509 9.0914 50.003-7.704 10.214-16.132 13.909-26.517 0 4.349-16.912 3.017-27.107 10.355-50.003z" fill="url(#ar)" stroke="url(#as)" stroke-width="1px"/>
  <path d="m357.09 540.21 1.0102-23.125c1.4064-9.8792 3.0582-2.9939 3.5355 0.25254l0.25254 22.872c-1.5152 1.2526-3.283 0.73875-4.7982 0z" fill="url(#at)" filter="url(#bf)"/>
 </g>
 <g transform="translate(-285.77 -439.11)">
  <path d="m338.57 711.65c4.51-1.9985 9.0086-4.6419 13.929-5 5.343-0.38888 11.125 1.0314 16.429 1.7857 3.8046 0.54111 11.022 3.6861 14.286 5.7143 11.38 7.0708 15.777 11.117 20.714 23.571 3.2471 8.1901 5.9556 20.355 3.9286 28.929-1.7273 7.3061-7.1927 12.927-12.143 18.571-3.1574 3.6002-5.7034 7.5286-10 9.6428-4.2566 2.0945-11.623 4.2648-14.286 6.0714-5.5475 3.7633-11.214 2.2676-16.786 0.35715 0 0-8.0904-2.5597-12.143-4.2857-4.3107-1.836-8.5028-3.9842-12.5-6.4286-4.8761-2.9818-9.9246-3.7716-11.429-9.2857-1.8717-6.8627-6.7401-11.477-8.2143-16.786-1.4777-5.3212-2.2993-8.4299-1.7857-13.929 0.60569-6.4847 2.0426-12.835 5.7143-18.214 5.9121-8.6617 14.698-16.466 24.286-20.714z" fill="#ada8a8"/>
  <path d="m323.39 764.33c4.8347 7.1781 8.1441 14.865 16.964 20.714l12.15-4.46c-2.4033-4.5014-6.6212-7.1883-10.357-10.357-10.024-2.705-11.377-5.8953-15.536-8.9286-3.119 0.42687-3.3857 1.6687-3.2143 3.0357z" fill="url(#ay)"/>
  <path d="m396.32 762.27c-4.8347 7.1781-8.1441 14.865-16.964 20.714l-12.143-4.4643c2.4033-4.5014 6.6212-7.1883 10.357-10.357 10.024-2.705 11.377-5.8953 15.536-8.9286 3.119 0.42687 3.3857 1.6687 3.2143 3.0357z" fill="url(#ax)"/>
  <path d="m353.75 778.97c-2.7666-0.10232-4.8489 0.82184-5.7143 3.5714-3.2502-0.47517-6.3102-1.9014-10-0.17857-7.4493 6.5704-3.5765 9.5274-0.0867 12.451 3.2394 4.4053 8.6535 4.9578 13.122 5.0486 1.6179 1.4816 1.0564 1.9495 3.75 3.3929 2.7372 0.47708 7.1829 2.1028 12.143 0.35714 2.0469-0.43772 4.3814-0.39613 5-3.2143 7.4856-0.22788 6.6176-1.5249 9.5382-3.1889 9.5617-10.121 4.7684-13.37 2.1682-16.201-2.2791-0.88496-6.6412 0.0624-8.4922 0.46174-0.13694-4.1056-3.1655-3.1509-5-4.2857l-8.5714 10c-5.847-5.7807-6.1926-8.3344-7.8571-8.2143z" fill="url(#au)"/>
  <path d="m353.93 778.26c2.2024 2.0574 4.2262 4.0944 6.4286 7.5l-1e-5 4.1072c-3.5119 2.3188-5.7738 1.2548-9.2857 1.194 2.1482 0.89286 3.1279 1.9643 7.1429 2.8572 2.381 1.1041 3.5119 0.93805 5.8928-1e-5 2.619 0.0217 5.2381-0.91866 7.8572-2.3214-2.313 0.68001-5.7054 0.14218-8.9286-1.9083l0.35715-4.2857c1.0425-2.0679 2.8342-5.1375 6.25-7.6786-7.1195-2.0577-12.21-1.2308-15.714 0.53571z" stroke="#000" stroke-width="1px"/>
  <path d="m349.57 763.96c0.0311 5.1059-1.694 10.156 4.0227 14.782l14.739 0.89286c5.3809-2.7642 4.3962-10.611 2.6427-15.17-0.83285-2.1285-1.2705-4.5731 0.25254-8.5863 1.2176-1.3528 3.045-1.4861 3.0305-5.3033 0.47719-2.0761 0.2525-6.4488-0.60968-11.204-2.1225-1.6817-3.2756-4.7177-3.862-1.7857-5.9807 2.2524-11.819 8.0982-16.489 3.1403-1.7167-2.1364-5.0406-5.1907-7.6501-1.8597l-0.93618 8.6782c1.2209 2.2589-1.1688 4.577 3.7881 8.0812z" fill="#ae8e8e"/>
  <path d="m344.11 727.9c0.11831 4.8811 2.36 8.3107 8.5714 11.786-1.8158 9.0329-0.37641 16.438 0.53572 24.107 2.6573-0.33168 4.9589 0.75976 7.1428 2.3214 2.5-2.7999 5-2.4425 7.5-2.5 0.0689-7.811 1.4421-13.339-0.17857-24.107 2.9627-2.5084 4.6631-6.3458 5.6013-10.162 0.29325-4.4556 1.1363-8.1728 1.0058-10.552 1.9972-0.60078 18.866 6.6533 26.821 21.033 3.3565 4.3129 3.77 3.8279 3.7542 1.521-1.6105-6.9941-9.6776-24.358-30.218-31.304-6.1905-2.9835-20.417-4.4637-25.714-3.2143-2.4963 0.58876-7.4314 3.1526-9.9344 4.7774-4.4466 2.8864-26.95 16.082-28.867 31.363 2.5916-2.8919 4.9217-2.9558 5.8-3.5923 3.4031-5.6753 15.706-17.851 27.822-17.369z" fill="url(#bh)"/>
  <path d="m354.39 778.2c-1.0056 0.0275-1.6604 1.2184 0 2.8434 1.7418 0.19154 3.8326-9e-3 4.2272 1.6958l0.0366 2.4813c2.2006 2.4583 4.1153 1.7707 5.3984-0.0999l0.30194-2.0987c0.49133-1.3888 2.0177-1.615 3.9253-1.4131 1.4391-1.1305 2.2778-1.6615 0.30195-3.3915-5.1605-0.67949-12.818-0.54981-14.191-0.0171z" fill="#ffaeae"/>
  <path d="m315.36 739.86c-3.0944-5.9742-4.5118-15.861-6.25-25-1.1905-6.2589-0.73059-7.0919 0.074-16.261 1.1368-6.4169 4.637-8.1069 10.536-5 10.524 9.2378 17.058 16.153 24.39 28.582 0 0-7.3236-1.842-8.0357-1.7857-3.3999 0.26856-14.567 6.6081-16.964 11.607-1.2548 2.6167-3.75 7.8571-3.75 7.8571z" fill="url(#av)"/>
  <path d="m309.54 700.36s1.686-7.6101 3.5281-7.8646c3.0354-0.4193 6.1298 1.4529 8.4235 3.4848 9.7842 8.6673 21.853 27.993 22.543 26.957 1.3998-2.9115 3.2365-5.5608 1.3979-10.415 0 0-8.9561-7.4377-14.36-14.449-3.1875-4.1361-4.1375-4.7372-8.546-7.5359-1.9547-1.2409-6.8172-1.1211-9.1325-1.1327-2.5503-0.0128-5.2396 9.5713-3.8546 10.956z" fill="#929292"/>
  <path d="m373.57 718.08c4.438-11.883 12.946-18.177 18.676-24.296 6.6619-5.3018 10.667-0.71113 10.714 1.6072 0.27371 17.147 1.4766 28.318-1.8903 45.011 0 0-4.0691-13.733-9.6447-18.023-5.0646-3.8967-17.855-4.2984-17.855-4.2984z" fill="url(#aw)"/>
  <path d="m403.21 695.22s-2.2159-6.78-6.3494-6.3187c-3.6042 0.40224-8.7361 3.7236-11.515 6.0535-8.2363 6.9048-13.89 14.842-13.89 14.842-1.5802 3.5391-0.28931 6.1212 2.1537 8.3192 0 0 7.1086-10.766 12.092-16.905 2.9548-3.6393 4.711-5.7088 8.6544-8.7463 1.489-1.1469 4.1989-1.15 6.0191-0.68179 1.3507 0.34745 2.8355 3.4362 2.8355 3.4362z" fill="#929292"/>
  <path d="m343.45 754.37c-4.0406-0.8418-8.0812-0.92598-12.122-1.7678-1.1917 7.7134 2.9913 8.7582 6.566 10.102 2.2364 0.84044 5.2564 0.68486 8.1657 0.30169 0.34252-0.0451 3.0483 7.49 8.7913 14.115 0.13488-0.65462-6.1742-15.528-5.8274-15.636l-1.2806-3.0738c-1.2016-2.1446-2.7524-3.4486-4.2931-4.0406z"/>
  <path d="m373.57 762.23c-1.6071-2.9738-1.7857-4.6432-1.0714-6.3441 3.5696-2.1887 6.9054-4.3773 14.395-6.566 0.68307 3.38 1.0614 6.3537-0.25254 7.0711-1.3257 2.1729-1.395 4.6599-7.8287 5.5558-0.52612 0.0322-1.0729-0.0589-1.5784 0.0889-0.94668 0.27674-8.1921 14.914-8.7212 14.674 2.1189-6.4855 3.7374-9.3794 5.0576-14.479z"/>
  <path d="m332.14 753.26 0.89285 5.3571c3.083 3.0725 7.0547 3.4787 11.071 3.75 2.7056-1.1803 1.9291-3.6665 0.89286-6.25l-3.3929-1.25z" fill="url(#ba)"/>
  <path d="m373.04 756.83c0.56259 1.8779 0.16463 4.7163 3.3929 3.9286 2.7809 0.0893 5.9596 1.0185 8.9286-3.5714 1.3568-3.202 0.64429-4.3348 0.71429-6.25-2.7096 0.79303-7.8678 1.049-13.036 5.8928z" fill="url(#az)"/>
  <path transform="matrix(1.4 0 0 1.5 -151.32 -375.9)" d="m381.25 755.93c0 0.8876-0.79949 1.6072-1.7857 1.6072-0.98622 0-1.7857-0.71955-1.7857-1.6072 0-0.8876 0.79949-1.6071 1.7857-1.6071 0.98623 0 1.7857 0.71954 1.7857 1.6071z" color="#000000"/>
  <path transform="matrix(1.4 0 0 1.5 -191.96 -374.92)" d="m381.25 755.93c0 0.8876-0.79949 1.6072-1.7857 1.6072-0.98622 0-1.7857-0.71955-1.7857-1.6072 0-0.8876 0.79949-1.6071 1.7857-1.6071 0.98623 0 1.7857 0.71954 1.7857 1.6071z" color="#000000"/>
  <path d="m329.81 752.6c-8.388-1.7688-22.648 12.071-18.183 13.385l2.7779 5.3033c0.79737-7.4977 3.4052-15.144 15.405-18.688z" fill="url(#bi)"/>
  <path d="m387.22 749.39c8.388-1.7688 22.9 14.344 17.93 14.395l-1.0102 1.5152c-0.79737-7.4977-4.9204-12.366-16.92-15.91z" fill="url(#bj)"/>
  <path d="m339.64 783.79c-1.4286 0-9.9887 3.021-20.357 8.9286-4.45 2.54-24.28 16.07-24.28 16.07" fill="none" stroke="url(#ah)" stroke-linecap="round" stroke-width="1.2"/>
  <path d="m344.66 784.31c-1.4227 0.1298-9.6729 3.9161-19.462 10.741-4.2037 2.931-22.725 18.211-22.725 18.211" fill="none" stroke="url(#ai)" stroke-linecap="round" stroke-width="1.2"/>
  <path d="m346.61 788.26c-1.4014 0.27757-9.2114 4.9042-18.234 12.714-3.8748 3.3537-17.129 26.198-17.129 26.198" fill="none" stroke="url(#aj)" stroke-linecap="round" stroke-width="1.2"/>
  <path d="m341.2 792.59c-1.038 0.9815-5.1824 9.0578-8.6574 20.474-1.4923 4.9025-4.4617 22.292-4.4617 22.292" fill="none" stroke="url(#am)" stroke-linecap="round" stroke-width="1.2"/>
  <path d="m381.53 786.94c1.2111 0 8.468 2.456 17.258 7.2588 3.7747 2.0625 20.588 13.066 20.588 13.066" fill="none" stroke="url(#ao)" stroke-linecap="round" stroke-width="1.2"/>
  <path d="m377.27 787.36c1.2061 0.10553 8.2003 3.1837 16.499 8.7324 3.5637 2.3828 19.265 14.806 19.265 14.806" fill="none" stroke="url(#al)" stroke-linecap="round" stroke-width="1.2"/>
  <path d="m375.62 790.57c1.188 0.22566 7.809 3.987 15.458 10.336 3.2849 2.7265 14.521 21.299 14.521 21.299" fill="none" stroke="url(#ak)" stroke-linecap="round" stroke-width="1.2"/>
  <path d="m380.21 794.09c0.87999 0.79794 4.3934 7.3638 7.3394 16.645 1.2651 3.9856 3.7824 18.123 3.7824 18.123" fill="none" stroke="url(#an)" stroke-linecap="round" stroke-width="1.2"/>
 </g>
</svg>
